<?xml version="1.0" encoding="utf-8"?>
<!-- Generator: Adobe Illustrator 26.0.3, SVG Export Plug-In . SVG Version: 6.00 Build 0)  -->
<svg version="1.0" id="Layer_1" xmlns="http://www.w3.org/2000/svg" xmlns:xlink="http://www.w3.org/1999/xlink" x="0px" y="0px"
	 viewBox="0 0 332 236" style="enable-background:new 0 0 332 236;" xml:space="preserve">
<style type="text/css">
	.st0{clip-path:url(#SVGID_00000067222637461937138200000000822567894894393483_);}
	.st1{fill-rule:evenodd;clip-rule:evenodd;fill:#ED1D24;}
	.st2{fill-rule:evenodd;clip-rule:evenodd;}
</style>
<g>
	<defs>
		<rect id="SVGID_1_" x="86.6" y="33.9" width="158.7" height="168.3"/>
	</defs>
	<clipPath id="SVGID_00000113352878699063457400000009529672090259496633_">
		<use xlink:href="#SVGID_1_"  style="overflow:visible;"/>
	</clipPath>
	<g style="clip-path:url(#SVGID_00000113352878699063457400000009529672090259496633_);">
		<path class="st1" d="M175,155.1c-3.4,0-6.1,2.7-6.2,6.1c0,3.4,2.7,6.1,6.1,6.2c3.4,0,6.1-2.7,6.2-6.1c0,0,0,0,0-0.1
			C181.1,157.9,178.4,155.2,175,155.1 M239.3,110.4c-3.4-0.1-6.2,2.5-6.4,5.9c-0.1,3.4,2.5,6.2,5.9,6.4c0.2,0,0.3,0,0.5,0
			c3.4-0.1,6-3,5.9-6.4C245.1,113,242.5,110.5,239.3,110.4 M189.1,33.9c-3.4,0-6.2,2.7-6.2,6.1c0,0,0,0,0,0c0,3.4,2.8,6.1,6.2,6.2
			c3.4,0,6.1-2.8,6.1-6.2C195.2,36.6,192.5,33.9,189.1,33.9L189.1,33.9"/>
		<path class="st2" d="M183.4,48.3c-3.3-2.2-4.9-6.1-4.3-10c-6.4-1.7-12.9-2.7-19.5-2.9v56.9c1.7,0.2,3.4,0.5,5,1.1L183.4,48.3
			L183.4,48.3z M154.5,92.3V35.5c-9,0.5-17.8,2.7-25.9,6.5l21.1,51.3C151.3,92.8,152.9,92.5,154.5,92.3 M146,94.9l-21-51
			c-8,4.1-15.3,9.7-21.4,16.4L141.4,98C142.8,96.8,144.3,95.7,146,94.9 M89.4,118.6c2.6,6.8,6,13.3,10.2,19.4l34.3-14.1
			c-0.5-1.7-0.9-3.5-1-5.3H89.4z M138.5,132.2c-1.2-1.4-2.3-3-3.1-4.6l-33.1,13.6c4.6,4.6,9.7,8.6,15.2,12.1
			C117.5,153.3,138.5,132.2,138.5,132.2z M169.4,152.7l-5.2-12.9c-7.9,2.5-16.6,0.7-22.9-4.7l-20.3,20.3c13.4,7.1,28.8,9.6,43.7,7.2
			C164.3,158.7,166.1,154.8,169.4,152.7 M168,138.2l5.2,13.1c4.1-0.7,8.2,1.1,10.4,4.6c2.2-1.1,4.5-2.2,6.6-3.4l-17.5-17.5
			C171.3,136.3,169.7,137.4,168,138.2 M181.3,118.6c-0.4,5-2.4,9.8-5.7,13.6l18.4,18.4c13.3-7.4,25.8-16.4,37-26.7
			c-1.5-1.4-2.5-3.3-2.9-5.3L181.3,118.6z M138.4,100.8l-37.5-37.5c-5.5,6.6-9.7,14.2-12.3,22.4l46.9,19.6
			C136.3,103.7,137.3,102.2,138.4,100.8 M187.1,50l-18.8,45c1.6,0.8,3.1,1.8,4.5,3l38-38c-1.9-2.5-4-4.8-6.2-7
			c-2.4-2.3-5.1-4.4-7.9-6.2C194.2,49.5,190.6,50.7,187.1,50 M178.7,105.5l46.3-19c-2.2-5.4-4.8-10.7-7.5-15.9
			c-1.4-2.4-2.9-4.8-4.4-7.2l-37.4,37.4C176.8,102.3,177.8,103.8,178.7,105.5 M132.8,114.5c0.2-1.9,0.5-3.7,1-5.5L87.7,89.7
			c-1.1,8.2-0.8,16.6,0.6,24.8L132.8,114.5z M181.3,114.5h46.8c0.6-2.7,2.2-5,4.5-6.4c-1.8-6-3.9-12-6.1-17.8l-46.3,19
			C180.7,111,181.1,112.7,181.3,114.5"/>
		<path class="st2" d="M128.9,196.8l-9.3-11h-6.8v16h4.7v-10.5l9,10.5h7.3v-15.9h-4.8V196.8L128.9,196.8z M137.9,201.8h4.5v-16.2
			h-4.5L137.9,201.8z M160.6,185.7h-9.3c-2.2-0.3-4.2,1.3-4.4,3.5c0,0.2,0,0.4,0,0.6v8c0.2,2.3,2.2,4,4.5,4.1h9.3
			c2.1,0.2,4-1.3,4.2-3.4c0-0.1,0-0.2,0-0.3v-2.2h-4.5c-0.1,1-1,1.9-2,1.8h-4.7c-1.2,0.1-2.2-0.8-2.3-2v-4c0.1-1.2,1.1-2.1,2.3-2
			h4.7c1,0,1.9,0.8,2,1.8h4.5v-2.2C164.5,187.3,162.7,185.7,160.6,185.7 M174.7,185.8l-6.6,16h4.8l1.2-2.6h9l0.7,2.6h5.2l-6.8-16
			L174.7,185.8z M175.6,195.4l2.8-6.8l2.7,6.8H175.6z M205.9,198.2l-8.1-12.6h-5.2v16.1h4.5v-9.1l5.9,9.1h5.9l5.1-8.7v8.7h4.5v-16.2
			h-5.1L205.9,198.2L205.9,198.2z M236.8,185.4h-14.2v16.4h4.8v-3.7h9.4c2.3-0.1,4.1-1.9,4.2-4.2v-4.5
			C240.7,187.3,239,185.6,236.8,185.4 M234.6,193.7h-7.1v-4h7.1c1.1,0,2,0.9,2,2S235.7,193.7,234.6,193.7 M104.4,195.7
			c0,1.1-0.9,2-2,2H95c-1.1,0-2-0.9-2-2v-10.1h-4.4V198c0,2.1,1.7,3.8,3.8,3.8c0,0,0,0,0,0H105c2.1,0,3.8-1.7,3.9-3.8c0,0,0,0,0,0
			v-12.2h-4.5V195.7L104.4,195.7z"/>
	</g>
</g>
</svg>
