<svg width="1280" height="720" xmlns="http://www.w3.org/2000/svg" xmlns:xlink="http://www.w3.org/1999/xlink" overflow="hidden"><defs><clipPath id="clip0"><rect x="0" y="0" width="1280" height="720"/></clipPath><clipPath id="clip1"><rect x="77" y="147" width="422" height="444"/></clipPath><clipPath id="clip2"><rect x="77" y="147" width="422" height="444"/></clipPath><clipPath id="clip3"><rect x="77" y="147" width="422" height="444"/></clipPath><linearGradient x1="91.7183" y1="217.982" x2="325.218" y2="217.982" gradientUnits="userSpaceOnUse" spreadMethod="pad" id="fill4"><stop offset="0" stop-color="#E6371E"/><stop offset="1" stop-color="#BE1622"/></linearGradient><linearGradient x1="92.1578" y1="272.467" x2="236.29" y2="272.467" gradientUnits="userSpaceOnUse" spreadMethod="pad" id="fill5"><stop offset="0" stop-color="#1D1D1B"/><stop offset="1" stop-color="#260E0A"/></linearGradient></defs><g clip-path="url(#clip0)"><rect x="0" y="0" width="1280" height="720" fill="#FFFFFF"/><text font-family="Helvetica Rounded,Helvetica Rounded_MSFontService,sans-serif" font-weight="700" font-size="80" transform="translate(440.051 347)">product</text><text font-family="Helvetica Rounded,Helvetica Rounded_MSFontService,sans-serif" font-weight="700" font-size="80" transform="translate(764.738 347)">design</text><text font-family="Helvetica Rounded,Helvetica Rounded_MSFontService,sans-serif" font-weight="700" font-size="80" transform="translate(1050.38 347)">&amp;</text><text font-family="Helvetica Rounded,Helvetica Rounded_MSFontService,sans-serif" font-weight="700" font-size="80" transform="translate(440.051 433)">development</text><text font-family="Helvetica Rounded,Helvetica Rounded_MSFontService,sans-serif" font-weight="700" font-size="80" transform="translate(972.885 433)">lab</text><g clip-path="url(#clip1)"><g clip-path="url(#clip2)"><g clip-path="url(#clip3)"><path d="M244.112 116.16C292.065 124.888 326.031 170.663 325.201 221.722 324.425 268.675 288.115 312.661 241.921 320.869 226.777 323.56 211.022 323.959 195.591 323.59 178.568 323.187 169.667 312.894 169.91 296.853 170.14 281.595 180.123 272.258 197.216 271.642 205.504 271.342 213.833 271.881 222.098 271.372 251.648 269.54 273.696 246.18 273.38 217.373 273.077 188.858 250.126 165.638 220.496 165.121 187.319 164.545 154.119 165.255 120.929 164.812 101.485 164.552 91.4086 154.798 91.7083 138.172 91.988 122.781 101.056 113.094 116.94 112.661 135.588 112.151 154.272 112.541 172.94 112.541 172.984 111.968 220.872 111.928 244.112 116.16Z" fill="url(#fill4)" transform="matrix(1 0 0 1.00079 77.1093 147)"/><path d="M92.3443 281.422C92.3443 266.404 91.8681 251.365 92.4442 236.367 93.5731 207.226 111.069 189.034 140.12 187.872 163.393 186.943 186.74 187.303 210.05 187.829 226.84 188.212 236.813 198.128 236.28 212.311 235.777 225.571 225.491 234.622 209.734 234.775 196.793 234.892 183.846 233.879 170.902 233.833 148.551 233.766 138.645 243.656 138.561 265.734 138.481 286.97 138.655 308.212 138.418 329.447 138.218 347.096 128.671 357.965 114.249 357.622 100.563 357.289 92.4442 347.106 92.271 329.587 92.1079 313.53 92.2377 297.469 92.2377 281.412Z" fill="url(#fill5)" transform="matrix(1 0 0 1.00079 77.1093 147)"/></g></g></g></g></svg>