<svg width="3800" height="1724" xmlns="http://www.w3.org/2000/svg" xmlns:xlink="http://www.w3.org/1999/xlink" xml:space="preserve" overflow="hidden"><g transform="translate(-595 -375)"><g><text fill="#000000" fill-opacity="1" font-family="Arial Rounded MT Bold,Arial Rounded MT Bold_MSFontService,sans-serif" font-style="normal" font-variant="normal" font-weight="700" font-stretch="normal" font-size="303" text-anchor="start" direction="ltr" writing-mode="lr-tb" unicode-bidi="normal" text-decoration="none" transform="matrix(1 0 0 1 1618.6 1168)">product design &amp; </text><text fill="#000000" fill-opacity="1" font-family="Arial Rounded MT Bold,Arial Rounded MT Bold_MSFontService,sans-serif" font-style="normal" font-variant="normal" font-weight="700" font-stretch="normal" font-size="303" text-anchor="start" direction="ltr" writing-mode="lr-tb" unicode-bidi="normal" text-decoration="none" transform="matrix(1 0 0 1 1618.6 1531)">development lab</text><g><g><g><path d="M945.858 450.085C1131.66 483.903 1263.26 661.263 1260.05 859.1 1257.04 1041.03 1116.35 1211.46 937.368 1243.26 878.686 1253.69 817.644 1255.24 757.852 1253.81 691.894 1252.24 657.405 1212.36 658.347 1150.21 659.237 1091.09 697.919 1054.91 764.149 1052.52 796.264 1051.36 828.533 1053.45 860.558 1051.48 975.056 1044.38 1060.49 953.87 1059.26 842.249 1058.09 731.763 969.16 641.793 854.352 639.793 725.802 637.561 597.162 640.309 468.561 638.593 393.222 637.586 354.179 599.794 355.34 535.371 356.424 475.735 391.558 438.201 453.104 436.524 525.359 434.55 597.756 436.059 670.088 436.059 670.256 433.84 855.81 433.685 945.858 450.085Z" fill="#CD1417" fill-rule="nonzero" fill-opacity="1" transform="matrix(1.0004 0 0 1 249.66 378)"/><path d="M357.805 1090.42C357.805 1032.23 355.959 973.96 358.192 915.846 362.566 802.934 430.356 732.447 542.919 727.944 633.096 724.344 723.557 725.738 813.876 727.776 878.931 729.26 917.575 767.684 915.51 822.637 913.562 874.015 873.706 909.085 812.65 909.678 762.51 910.13 712.345 906.208 662.192 906.027 575.589 905.769 537.204 944.09 536.881 1029.63 536.571 1111.92 537.242 1194.22 536.326 1276.5 535.552 1344.89 498.56 1387 442.678 1385.67 389.648 1384.38 358.192 1344.92 357.521 1277.04 356.888 1214.83 357.392 1152.6 357.392 1090.38Z" fill="#000000" fill-rule="nonzero" fill-opacity="1" transform="matrix(1.0004 0 0 1 249.66 378)"/></g></g></g></g></g></svg>